<svg width="355" height="347" viewBox="0 0 355 347" fill="none" xmlns="http://www.w3.org/2000/svg">
<g filter="url(#filter0_b_11_39)">
<path d="M120.99 176.35V170.75C121.457 170.75 122.133 170.61 123.02 170.33C123.953 170.003 124.887 169.513 125.82 168.86C126.753 168.16 127.547 167.297 128.2 166.27C128.9 165.197 129.25 163.937 129.25 162.49V127H134.85V162.49C134.85 165.01 134.337 167.157 133.31 168.93C132.283 170.703 131 172.127 129.46 173.2C127.92 174.273 126.38 175.067 124.84 175.58C123.347 176.093 122.063 176.35 120.99 176.35ZM117.49 176.35C116.463 176.35 115.203 176.093 113.71 175.58C112.217 175.02 110.747 174.18 109.3 173.06C107.9 171.94 106.71 170.517 105.73 168.79C104.75 167.017 104.26 164.917 104.26 162.49V159.06H109.93V162.21C109.93 163.703 110.21 165.01 110.77 166.13C111.33 167.203 112.03 168.09 112.87 168.79C113.71 169.443 114.55 169.933 115.39 170.26C116.23 170.587 116.93 170.75 117.49 170.75V176.35ZM168.626 176C166.666 176 164.939 175.65 163.446 174.95C161.999 174.203 160.763 173.293 159.736 172.22C158.756 171.1 158.009 169.957 157.496 168.79C157.029 167.623 156.796 166.597 156.796 165.71V148.49C156.796 147.603 157.029 146.6 157.496 145.48C158.009 144.313 158.756 143.193 159.736 142.12C160.763 141.047 161.999 140.16 163.446 139.46C164.939 138.713 166.643 138.34 168.556 138.34V143.52C167.296 143.52 166.176 143.847 165.196 144.5C164.263 145.107 163.516 145.853 162.956 146.74C162.443 147.58 162.186 148.35 162.186 149.05V154.02H178.566V149.12C178.566 147.953 178.239 146.95 177.586 146.11C176.933 145.27 176.093 144.617 175.066 144.15C174.086 143.637 173.036 143.38 171.916 143.38V138.34C173.783 138.34 175.603 138.783 177.376 139.67C179.196 140.557 180.713 141.77 181.926 143.31C183.139 144.803 183.746 146.507 183.746 148.42V159.2H162.186V165.71C162.186 166.363 162.443 167.11 162.956 167.95C163.516 168.743 164.286 169.443 165.266 170.05C166.246 170.657 167.366 170.96 168.626 170.96V176ZM171.916 176V170.89C173.316 170.89 174.506 170.61 175.486 170.05C176.513 169.443 177.329 168.743 177.936 167.95C178.543 167.11 178.939 166.293 179.126 165.5L183.816 167.25C183.443 168.743 182.719 170.167 181.646 171.52C180.573 172.873 179.219 173.97 177.586 174.81C175.953 175.603 174.063 176 171.916 176ZM224.918 176L206.018 130.5V127H210.638L227.088 166.9L239.128 139.67H239.828V152.06L229.258 176H224.918ZM206.018 176V140.51H206.648L211.618 152.62V176H206.018ZM243.258 176V127H248.858V176H243.258Z" fill="#D8ADAD"/>
<path d="M122.99 177.35V171.75C123.457 171.75 124.133 171.61 125.02 171.33C125.953 171.003 126.887 170.513 127.82 169.86C128.753 169.16 129.547 168.297 130.2 167.27C130.9 166.197 131.25 164.937 131.25 163.49V128H136.85V163.49C136.85 166.01 136.337 168.157 135.31 169.93C134.283 171.703 133 173.127 131.46 174.2C129.92 175.273 128.38 176.067 126.84 176.58C125.347 177.093 124.063 177.35 122.99 177.35ZM119.49 177.35C118.463 177.35 117.203 177.093 115.71 176.58C114.217 176.02 112.747 175.18 111.3 174.06C109.9 172.94 108.71 171.517 107.73 169.79C106.75 168.017 106.26 165.917 106.26 163.49V160.06H111.93V163.21C111.93 164.703 112.21 166.01 112.77 167.13C113.33 168.203 114.03 169.09 114.87 169.79C115.71 170.443 116.55 170.933 117.39 171.26C118.23 171.587 118.93 171.75 119.49 171.75V177.35ZM170.626 177C168.666 177 166.939 176.65 165.446 175.95C163.999 175.203 162.763 174.293 161.736 173.22C160.756 172.1 160.009 170.957 159.496 169.79C159.029 168.623 158.796 167.597 158.796 166.71V149.49C158.796 148.603 159.029 147.6 159.496 146.48C160.009 145.313 160.756 144.193 161.736 143.12C162.763 142.047 163.999 141.16 165.446 140.46C166.939 139.713 168.643 139.34 170.556 139.34V144.52C169.296 144.52 168.176 144.847 167.196 145.5C166.263 146.107 165.516 146.853 164.956 147.74C164.443 148.58 164.186 149.35 164.186 150.05V155.02H180.566V150.12C180.566 148.953 180.239 147.95 179.586 147.11C178.933 146.27 178.093 145.617 177.066 145.15C176.086 144.637 175.036 144.38 173.916 144.38V139.34C175.783 139.34 177.603 139.783 179.376 140.67C181.196 141.557 182.713 142.77 183.926 144.31C185.139 145.803 185.746 147.507 185.746 149.42V160.2H164.186V166.71C164.186 167.363 164.443 168.11 164.956 168.95C165.516 169.743 166.286 170.443 167.266 171.05C168.246 171.657 169.366 171.96 170.626 171.96V177ZM173.916 177V171.89C175.316 171.89 176.506 171.61 177.486 171.05C178.513 170.443 179.329 169.743 179.936 168.95C180.543 168.11 180.939 167.293 181.126 166.5L185.816 168.25C185.443 169.743 184.719 171.167 183.646 172.52C182.573 173.873 181.219 174.97 179.586 175.81C177.953 176.603 176.063 177 173.916 177ZM226.918 177L208.018 131.5V128H212.638L229.088 167.9L241.128 140.67H241.828V153.06L231.258 177H226.918ZM208.018 177V141.51H208.648L213.618 153.62V177H208.018ZM245.258 177V128H250.858V177H245.258Z" fill="url(#paint0_radial_11_39)"/>
<path d="M122.51 197.9V197H142.58L134.93 218.03L131.03 207.35L127.16 218.03L119.51 197H120.47L127.16 215.39L131.03 204.71L134.93 215.39L141.29 197.9H122.51ZM157.572 216.23C156.472 217.61 154.672 218.3 152.172 218.3C149.672 218.3 147.882 217.59 146.802 216.17C145.722 214.75 145.182 212.46 145.182 209.3C145.182 206.14 145.722 203.85 146.802 202.43C147.882 201.01 149.672 200.3 152.172 200.3C155.072 200.3 157.042 201.25 158.082 203.15L150.732 209.3H149.322L156.912 202.97C156.032 201.79 154.452 201.2 152.172 201.2C151.172 201.2 150.332 201.31 149.652 201.53C148.972 201.73 148.342 202.12 147.762 202.7C147.202 203.26 146.782 204.09 146.502 205.19C146.222 206.27 146.082 207.64 146.082 209.3C146.082 210.96 146.222 212.34 146.502 213.44C146.782 214.52 147.202 215.35 147.762 215.93C148.342 216.49 148.972 216.88 149.652 217.1C150.332 217.3 151.172 217.4 152.172 217.4C154.452 217.4 156.032 216.81 156.912 215.63L157.572 216.23ZM166.688 218H162.368V200.6H165.668C168.028 200.6 169.808 201.01 171.008 201.83C172.228 202.65 172.838 203.77 172.838 205.19C172.838 206.89 172.088 208.12 170.588 208.88C171.688 209.26 172.508 209.83 173.048 210.59C173.588 211.33 173.858 212.19 173.858 213.17C173.858 214.61 173.258 215.78 172.058 216.68C170.878 217.56 169.088 218 166.688 218ZM166.688 217.1C168.448 217.1 169.928 216.78 171.128 216.14C172.348 215.5 172.958 214.51 172.958 213.17C172.958 212.55 172.728 211.88 172.268 211.16C171.808 210.42 171.098 209.88 170.138 209.54L168.578 209L170.018 208.25C170.518 207.99 170.958 207.6 171.338 207.08C171.738 206.54 171.938 205.91 171.938 205.19C171.938 203.93 171.338 203 170.138 202.4C168.938 201.8 167.448 201.5 165.668 201.5H163.268V217.1H166.688ZM190.299 218H187.419V197H190.299C193.179 197 195.619 198.06 197.619 200.18C199.619 202.3 200.619 204.74 200.619 207.5C200.619 210.26 199.619 212.7 197.619 214.82C195.619 216.94 193.179 218 190.299 218ZM190.299 217.1C192.919 217.1 195.139 216.14 196.959 214.22C198.799 212.28 199.719 210.04 199.719 207.5C199.719 204.96 198.799 202.73 196.959 200.81C195.139 198.87 192.919 197.9 190.299 197.9H188.319V217.1H190.299ZM216.722 216.23C215.622 217.61 213.822 218.3 211.322 218.3C208.822 218.3 207.032 217.59 205.952 216.17C204.872 214.75 204.332 212.46 204.332 209.3C204.332 206.14 204.872 203.85 205.952 202.43C207.032 201.01 208.822 200.3 211.322 200.3C214.222 200.3 216.192 201.25 217.232 203.15L209.882 209.3H208.472L216.062 202.97C215.182 201.79 213.602 201.2 211.322 201.2C210.322 201.2 209.482 201.31 208.802 201.53C208.122 201.73 207.492 202.12 206.912 202.7C206.352 203.26 205.932 204.09 205.652 205.19C205.372 206.27 205.232 207.64 205.232 209.3C205.232 210.96 205.372 212.34 205.652 213.44C205.932 214.52 206.352 215.35 206.912 215.93C207.492 216.49 208.122 216.88 208.802 217.1C209.482 217.3 210.322 217.4 211.322 217.4C213.602 217.4 215.182 216.81 216.062 215.63L216.722 216.23ZM234.208 200.6L226.708 218.3L219.208 200.6H220.168L226.708 215.99L233.248 200.6H234.208Z" fill="url(#paint1_radial_11_39)"/>
<path d="M268.628 60.3225C265.435 59.7452 264.352 59.9018 262.628 60.3225C261.065 61.2945 260.79 61.722 261.128 62.3225L262.628 63.3225C262.628 63.3225 264.614 63.618 265.628 64.3225C266.655 65.0358 267.628 66.8225 267.628 66.8225C269.184 68.173 270.061 68.046 271.628 67.3225C271.628 67.3225 272.628 66.8225 273.128 66.3225C273.628 65.8225 272.628 63.8225 272.628 63.8225L270.628 61.3225C269.617 60.5167 269.274 60.4682 268.628 60.3225Z" fill="url(#paint2_linear_11_39)"/>
<path d="M172.5 317.946C172.704 315.868 174 314.946 172.5 312.946C171 310.946 153.362 302.723 137.5 299.446C123.466 298.246 115.822 296.633 102.5 292.446C85.2926 286.809 77.5464 279.997 65.5 264.446C53.1902 247.99 47.9299 237.152 42 214.446C37.3245 195.203 36.1129 183.806 37.5 161.946C38.9974 145.658 40.7383 136.562 46.5 120.446C52.6212 103.385 56.9573 94.1098 69 78.946C77.6895 66.9035 83.7588 60.2161 97.5 48.446C111.656 39.7997 120.138 36.1711 136.5 32.446L137.114 32.2753C148.167 29.204 154.551 27.43 174 26.446C180.774 27.8742 186.402 28.0816 198 27.946C200.414 28.1097 201.165 27.5535 201 24.946C200.886 22.5377 201.651 23.0194 203.5 24.946C211.03 30.9284 216.037 33.6127 225.5 37.946C225.502 38.8018 231.503 39.3588 233 37.946C234.497 36.5332 232.362 36.0802 233 35.446L236 37.946C243.106 43.6705 247.179 48.0015 254.5 56.446C259.486 58.8495 261.872 59.7953 261 56.446C261 56.446 254.5 48.446 257 48.446C259.5 48.446 283 61.446 281.5 63.446C280 65.446 277 63.446 277 63.446C274.085 62.6017 274.473 63.6533 277 66.446L295 89.946C303.592 101.708 307.861 108.955 315 122.446C316.485 125.507 316.27 126.855 315 128.946C315 128.946 310 140.446 311.5 142.946C313 145.446 320.332 161.629 323 174.946C322.528 180.939 317.5 189.446 316.5 190.946C315.5 192.446 314.76 203.701 313 209.446C310.426 215.11 309.004 217.253 306.5 219.446C306.5 219.446 301 225.446 300 224.946C299 224.446 300 219.446 300 218.446C300 217.446 295.5 221.446 294 223.446C292.5 225.446 294 229.446 294 230.946C294 232.446 285.5 234.446 285.5 234.446C281.924 237.063 280.114 238.665 277.5 241.946C273.311 246.133 271.344 248.614 269 253.446C266.073 260.016 265.214 263.092 264.5 267.946C264.18 272.61 263.768 274.748 262 276.446C255.341 282.466 250.746 284.72 242 290.446C239.844 289.15 238.163 289.004 235 288.946C234.787 286.526 234.434 285.584 233.5 284.446C229.052 284.05 227.771 284.654 228 287.446C228.634 289.417 228.326 290.51 227 292.446L223.5 293.446C222.309 294.112 222.471 294.43 223.5 294.946C226.806 294.827 228.064 295.032 228 296.446L225.5 300.446C217.683 304.215 213.035 305.613 204.5 307.446C203.932 307.715 203.813 307.931 204 308.446L206 310.446C208.045 311.722 207.732 312.642 206 314.446L191 317.946C186.87 319.853 186.927 321.061 191 323.446C199.801 322.309 204.756 321.554 213 323.446C217.655 324.274 219.643 325.274 221 328.946C215.41 330.954 211.657 331.332 204.5 331.446C202.8 331.948 202.766 332.379 204.5 333.446L221 338.946C225.189 337.013 230.488 335.916 243 333.946C247.364 333.682 250.443 332.72 255 331.446C258.456 329.799 260.201 328.7 263 326.446C269.195 320.793 273.137 316.948 282 307.446C285.757 303.033 288.018 300.578 294 296.446C295.043 295.049 296.007 294.858 298 294.946C299.763 294.771 299 298.446 300 299.446C301 300.446 306.5 295.446 307 293.446C307.5 291.446 307 284.946 308 282.446C309 279.946 313 274.946 313 274.946L320.5 265.446C324.432 261.221 326.694 258.964 331 255.446C335.149 251.375 343 247.446 343 246.946C343 246.446 343.198 233.743 344.5 228.946C346.111 218.979 347.081 213.428 350.5 204.446C352.525 198.552 353.246 195.27 354 189.446C354.777 186.778 350.913 146.468 350.5 144.946C350.087 143.424 340 146.446 340 146.446C338.57 148.542 337 150.446 336 148.946C335 147.446 333.479 137.185 333.5 129.446C332.015 128.009 332.293 126.256 332 123.946C331.753 121.987 332.127 121.865 334 123.946L338.5 130.446C340.783 132.993 341.259 132.854 341 130.446L336 115.446C334.919 113.223 334.604 111.924 332.5 109.446C330.144 105.59 327.923 103.531 324.5 99.946L316.5 90.946C310.984 86.7349 308.771 83.4627 305 77.446C303.247 75.302 302.392 73.8365 301 70.946C298.422 67.5113 298.318 64.3922 298 58.946L296 55.446L294 51.946C291.137 49.3542 289.084 48.0722 285 45.946C275.74 41.8332 272.016 38.8782 268 32.446C268 32.446 262 34.446 261 35.446C260 36.446 264.5 40.446 264.5 40.446C264.939 42.5282 264.629 42.9768 263 42.446L251.5 34.446C246.255 33.6603 242.002 33.4988 241.5 31.446V26.446C241.644 25.2646 242.256 24.91 244.5 24.946L256 29.446C257.536 29.5314 257.927 29.2473 257.5 27.946C255.667 26.3246 254.303 25.5329 251.5 24.446C229.402 15.3664 217.153 11.4143 195.5 5.94601L162.5 0.446008C154.904 -0.175218 150.886 -0.265518 145 0.946008L141.5 2.44601L117.5 5.44601C94.5392 18.0387 82.521 25.4245 62 38.946L45 51.946L35 62.446L25.5 83.946L5 158.446C3.83535 163.818 2.85311 166.38 0 169.446L6 188.946L7 222.446L8.5 227.946L18.5 252.946L30.5 276.446L50 302.446L57 309.946L78 325.446C89.9188 331.884 96.3212 335.22 109 338.946C122.162 344.128 125.481 344.075 132.5 345.946C138.553 346.667 141.947 346.702 148 345.946C151.296 344.605 153.236 343.675 157.5 340.446C162.344 336.227 164.452 333.686 167.5 328.946C169.63 325.363 170.791 323.223 172.5 317.946Z" fill="url(#paint3_linear_11_39)"/>
<path d="M176 39.946C175.423 40.727 175.45 41.165 176 41.946C177.145 42.8258 177.674 43.4093 178 44.946C179.34 45.2106 180.113 45.6175 181.5 46.446C182.601 46.1573 183.179 45.9015 184 44.946C184.774 44.2661 184.985 43.9394 185 43.446C185.162 42.8601 185.149 42.5318 185 41.946C184.799 40.3885 184.551 39.932 184 39.446C182.959 38.9492 182.215 38.7822 179.5 39.446C178.103 38.9814 177.334 39.0565 176 39.946Z" fill="url(#paint4_linear_11_39)"/>
</g>
<defs>
<filter id="filter0_b_11_39" x="-4" y="-4" width="362.103" height="354.5" filterUnits="userSpaceOnUse" color-interpolation-filters="sRGB">
<feFlood flood-opacity="0" result="BackgroundImageFix"/>
<feGaussianBlur in="BackgroundImageFix" stdDeviation="2"/>
<feComposite in2="SourceAlpha" operator="in" result="effect1_backgroundBlur_11_39"/>
<feBlend mode="normal" in="SourceGraphic" in2="effect1_backgroundBlur_11_39" result="shape"/>
</filter>
<radialGradient id="paint0_radial_11_39" cx="0" cy="0" r="1" gradientUnits="userSpaceOnUse" gradientTransform="translate(297.776 165.154) rotate(-180) scale(209.539 491.718)">
<stop offset="0.0001"/>
<stop offset="0.0002" stop-color="#0A0E80"/>
<stop offset="1" stop-color="#610658"/>
</radialGradient>
<radialGradient id="paint1_radial_11_39" cx="0" cy="0" r="1" gradientUnits="userSpaceOnUse" gradientTransform="translate(119 207.895) scale(121 362.039)">
<stop stop-color="#610658"/>
<stop offset="1" stop-color="#8487E9"/>
</radialGradient>
<linearGradient id="paint2_linear_11_39" x1="264.95" y1="62.3317" x2="269.702" y2="68.8121" gradientUnits="userSpaceOnUse">
<stop stop-color="#292FD8"/>
<stop offset="1" stop-color="#A51196"/>
</linearGradient>
<linearGradient id="paint3_linear_11_39" x1="114" y1="104.5" x2="331" y2="299.5" gradientUnits="userSpaceOnUse">
<stop stop-color="#292FD8"/>
<stop offset="1" stop-color="#A51196"/>
</linearGradient>
<linearGradient id="paint4_linear_11_39" x1="178.649" y1="41.2516" x2="183.299" y2="46.4968" gradientUnits="userSpaceOnUse">
<stop stop-color="#292FD8"/>
<stop offset="1" stop-color="#A51196"/>
</linearGradient>
</defs>
</svg>
